  0
SECTION
  2
HEADER
  9
$ACADVER
  1
AC1018
  9
$ACADMAINTVER
 70
     0
  9
$DWGCODEPAGE
  3
ANSI_1252
  9
$EXTMIN
 10
-622.841208613721
 20
245420.139011562
 30
0.0
  9
$EXTMAX
 10
297.262738408169
 20
245679.055249147
 30
0.0
  9
$LIMMIN
 10
0.0
 20
0.0
  9
$LIMMAX
 10
12.0
 20
9.0
  9
$ORTHOMODE
 70
     0
  9
$REGENMODE
 70
     1
  9
$FILLMODE
 70
     1
  9
$QTEXTMODE
 70
     0
  9
$MIRRTEXT
 70
     1
  9
$LTSCALE
 40
1.0
  9
$ATTMODE
 70
     1
  9
$TEXTSIZE
 40
0.2
  9
$TRACEWID
 40
0.05
  9
$TEXTSTYLE
  7
Standard
  9
$CLAYER
  8
0
  9
$CELTYPE
  6
ByLayer
  9
$CECOLOR
 62
   256
  9
$CELTSCALE
 40
1.0
  9
$DISPSILH
 70
     0
  9
$LUNITS
 70
     2
  9
$LUPREC
 70
     4
  9
$SKETCHINC
 40
0.1
  9
$FILLETRAD
 40
0.5
  9
$AUNITS
 70
     0
  9
$AUPREC
 70
     0
  9
$MENU
  1
.
  9
$ELEVATION
 40
0.0
  9
$PELEVATION
 40
0.0
  9
$THICKNESS
 40
0.0
  9
$LIMCHECK
 70
     0
  9
$CHAMFERA
 40
0.5
  9
$CHAMFERB
 40
0.5
  9
$CHAMFERC
 40
1.0
  9
$CHAMFERD
 40
0.0
  9
$SKPOLY
 70
     0
  9
$ANGBASE
 50
0.0
  9
$ANGDIR
 70
     0
  9
$PDMODE
 70
     0
  9
$PDSIZE
 40
0.0
  9
$PLINEWID
 40
0.0
  9
$SPLFRAME
 70
     0
  9
$SPLINETYPE
 70
     6
  9
$SPLINESEGS
 70
     8
  9
$HANDSEED
  5
0002000A
  9
$SURFTAB1
 70
     6
  9
$SURFTAB2
 70
     6
  9
$SURFTYPE
 70
     6
  9
$SURFU
 70
     6
  9
$SURFV
 70
     6
  9
$UCSBASE
  2

  9
$UCSNAME
  2

  9
$UCSORG
 10
0.0
 20
0.0
 30
0.0
  9
$UCSXDIR
 10
1.0
 20
0.0
 30
0.0
  9
$UCSYDIR
 10
0.0
 20
1.0
 30
0.0
  9
$UCSORTHOREF
  2

  9
$UCSORTHOVIEW
 70
     0
  9
$UCSORGTOP
 10
0.0
 20
0.0
 30
0.0
  9
$UCSORGBOTTOM
 10
0.0
 20
0.0
 30
0.0
  9
$UCSORGLEFT
 10
0.0
 20
0.0
 30
0.0
  9
$UCSORGRIGHT
 10
0.0
 20
0.0
 30
0.0
  9
$UCSORGFRONT
 10
0.0
 20
0.0
 30
0.0
  9
$UCSORGBACK
 10
0.0
 20
0.0
 30
0.0
  9
$PUCSBASE
  2

  9
$PUCSNAME
  2

  9
$PUCSORG
 10
0.0
 20
0.0
 30
0.0
  9
$PUCSXDIR
 10
1.0
 20
0.0
 30
0.0
  9
$PUCSYDIR
 10
0.0
 20
1.0
 30
0.0
  9
$PUCSORTHOREF
  2

  9
$PUCSORTHOVIEW
 70
     0
  9
$PUCSORGTOP
 10
0.0
 20
0.0
 30
0.0
  9
$PUCSORGBOTTOM
 10
0.0
 20
0.0
 30
0.0
  9
$PUCSORGLEFT
 10
0.0
 20
0.0
 30
0.0
  9
$PUCSORGRIGHT
 10
0.0
 20
0.0
 30
0.0
  9
$PUCSORGFRONT
 10
0.0
 20
0.0
 30
0.0
  9
$PUCSORGBACK
 10
0.0
 20
0.0
 30
0.0
  9
$WORLDVIEW
 70
     1
  9
$SHADEDGE
 70
     3
  9
$SHADEDIF
 70
    70
  9
$TILEMODE
 70
     1
  9
$MAXACTVP
 70
    64
  9
$PINSBASE
 10
0.0
 20
0.0
 30
0.0
  9
$PLIMCHECK
 70
     0
  9
$PEXTMIN
 10
1.000000000000000E+20
 20
1.000000000000000E+20
 30
1.000000000000000E+20
  9
$PEXTMAX
 10
-1.000000000000000E+20
 20
-1.000000000000000E+20
 30
-1.000000000000000E+20
  9
$PLIMMIN
 10
0.0
 20
0.0
  9
$PLIMMAX
 10
12.0
 20
9.0
  9
$UNITMODE
 70
     0
  9
$VISRETAIN
 70
     1
  9
$PLINEGEN
 70
     0
  9
$PSLTSCALE
 70
     1
  9
$TREEDEPTH
 70
  3020
  9
$CMLSTYLE
  2
Standard
  9
$CMLJUST
 70
     0
  9
$CMLSCALE
 40
1.0
  9
$PROXYGRAPHICS
 70
     1
  9
$MEASUREMENT
 70
     0
  9
$CELWEIGHT
370
    -1
  9
$ENDCAPS
280
     0
  9
$JOINSTYLE
280
     0
  9
$LWDISPLAY
290
     0
  9
$INSUNITS
 70
6
  9
$HYPERLINKBASE
  1

  9
$STYLESHEET
  1

  9
$XEDIT
290
     1
  9
$CEPSNTYPE
380
     0
  9
$PSTYLEMODE
290
     1
  9
$EXTNAMES
290
     1
  9
$PSVPSCALE
 40
0.0
  9
$OLESTARTUP
290
     0
  9
$SORTENTS
280
   127
  9
$INDEXCTL
280
     0
  9
$HIDETEXT
280
     1
  9
$XCLIPFRAME
290
     0
  9
$HALOGAP
280
     0
  9
$OBSCOLOR
 70
   257
  9
$OBSLTYPE
280
     0
  9
$INTERSECTIONDISPLAY
280
     0
  9
$INTERSECTIONCOLOR
 70
   257
  9
$DIMASSOC
280
     2
  9
$PROJECTNAME
  1

  0
ENDSEC
  0
SECTION
  2
CLASSES
  0
CLASS
  1
ACDBDICTIONARYWDFLT
  2
AcDbDictionaryWithDefault
  3
ObjectDBX Classes
 90
        0
 91
        4
280
     0
281
     0
  0
ENDSEC
  0
SECTION
  2
TABLES
  0
TABLE
  2
VPORT
  5
8
330
0
100
AcDbSymbolTable
 70
     1
  0
VPORT
  5
29
330
8
100
AcDbSymbolTableRecord
100
AcDbViewportTableRecord
  2
*Active
 70
     0
 10
0.0
 20
0.0
 11
1.0
 21
1.0
 12
80.25
 22
106.4409457059851
 13
0.0
 23
0.0
 14
0.5
 24
0.5
 15
0.5
 25
0.5
 16
0.0
 26
0.0
 36
1.0
 17
0.0
 27
0.0
 37
0.0
 40
113.3818914119703
 41
0.8863849310366128
 42
50.0
 43
0.0
 44
0.0
 50
0.0
 51
0.0
 71
     0
 72
  1000
 73
     1
 74
     3
 75
     0
 76
     0
 77
     0
 78
     0
281
     0
 65
     1
110
0.0
120
0.0
130
0.0
111
1.0
121
0.0
131
0.0
112
0.0
122
1.0
132
0.0
 79
     0
146
0.0
  0
ENDTAB
  0
TABLE
  2
LTYPE
  5
5
330
0
100
AcDbSymbolTable
 70
     1
  0
LTYPE
  5
14
330
5
100
AcDbSymbolTableRecord
100
AcDbLinetypeTableRecord
  2
ByBlock
 70
     0
  3

 72
    65
 73
     0
 40
0.0
  0
LTYPE
  5
15
330
5
100
AcDbSymbolTableRecord
100
AcDbLinetypeTableRecord
  2
ByLayer
 70
     0
  3

 72
    65
 73
     0
 40
0.0
  0
LTYPE
  5
16
330
5
100
AcDbSymbolTableRecord
100
AcDbLinetypeTableRecord
  2
Continuous
 70
     0
  3
Solid line
 72
    65
 73
     0
 40
0.0
  0
ENDTAB
  0
TABLE
  2
LAYER
  5
2
330
0
100
AcDbSymbolTable
 70
     1
  0
LAYER
  5
10
330
2
100
AcDbSymbolTableRecord
100
AcDbLayerTableRecord
  2
0
 70
     0
 62
     7
  6
Continuous
370
    -3
390
F
  0
ENDTAB
  0
TABLE
  2
STYLE
  5
3
330
0
100
AcDbSymbolTable
 70
     1
  0
STYLE
  5
11
330
3
100
AcDbSymbolTableRecord
100
AcDbTextStyleTableRecord
  2
Standard
 70
     0
 40
0.0
 41
1.0
 50
0.0
 71
     0
 42
0.2
  3
txt
  4

  0
ENDTAB
  0
TABLE
  2
VIEW
  5
6
330
0
100
AcDbSymbolTable
 70
     0
  0
ENDTAB
  0
TABLE
  2
UCS
  5
7
330
0
100
AcDbSymbolTable
 70
     0
  0
ENDTAB
  0
TABLE
  2
APPID
  5
9
330
0
100
AcDbSymbolTable
 70
     1
  0
APPID
  5
12
330
9
100
AcDbSymbolTableRecord
100
AcDbRegAppTableRecord
  2
ACAD
 70
     0
  0
ENDTAB
  0
TABLE
  2
DIMSTYLE
  5
A
330
0
100
AcDbSymbolTable
 70
     1
100
AcDbDimStyleTable
  0
DIMSTYLE
105
27
330
A
100
AcDbSymbolTableRecord
100
AcDbDimStyleTableRecord
  2
Standard
 70
     0
340
11
  0
ENDTAB
  0
TABLE
  2
BLOCK_RECORD
  5
1
330
0
100
AcDbSymbolTable
 70
     1
  0
BLOCK_RECORD
  5
1F
330
1
100
AcDbSymbolTableRecord
100
AcDbBlockTableRecord
  2
*Model_Space
340
22
  0
BLOCK_RECORD
  5
1B
330
1
100
AcDbSymbolTableRecord
100
AcDbBlockTableRecord
  2
*Paper_Space
340
1E
  0
ENDTAB
  0
ENDSEC
  0
SECTION
  2
BLOCKS
  0
BLOCK
  5
20
330
1F
100
AcDbEntity
  8
0
100
AcDbBlockBegin
  2
*Model_Space
 70
     0
 10
0.0
 20
0.0
 30
0.0
  3
*Model_Space
  1

  0
ENDBLK
  5
21
330
1F
100
AcDbEntity
  8
0
100
AcDbBlockEnd
  0
BLOCK
  5
1C
330
1B
100
AcDbEntity
 67
     1
  8
0
100
AcDbBlockBegin
  2
*Paper_Space
 70
     0
 10
0.0
 20
0.0
 30
0.0
  3
*Paper_Space
  1

  0
ENDBLK
  5
1D
330
1B
100
AcDbEntity
 67
     1
  8
0
100
AcDbBlockEnd
  0
ENDSEC
  0
SECTION
  2
ENTITIES
  0
LWPOLYLINE
  5
20000
100
AcDbEntity
  8
0
100
AcDbPolyline
 70
0
 90
54
 10
263.553933900633
 20
245518.495963215
 10
260.313890658089
 20
245517.796408424
 10
256.358379410236
 20
245517.826303781
 10
250.607385742894
 20
245518.352464356
 10
242.700904851335
 20
245519.297161838
 10
232.63893673556
 20
245520.660396228
 10
222.982693140582
 20
245522.429355139
 10
213.732174066401
 20
245524.60403857
 10
204.887379513018
 20
245527.184446522
 10
196.448309480432
 20
245530.170578995
 10
187.919980053271
 20
245532.673899289
 10
179.302391231534
 20
245534.694407402
 10
170.595543015222
 20
245536.232103336
 10
161.799435404334
 20
245537.28698709
 10
152.067014247667
 20
245537.913735676
 10
141.398279545221
 20
245538.112349093
 10
129.793231296997
 20
245537.882827341
 10
117.251869502993
 20
245537.225170421
 10
107.37835486131
 20
245536.750281133
 10
100.172687371948
 20
245536.458159479
 10
95.6348670349071
 20
245536.348805456
 10
93.7648938501876
 20
245536.422219066
 10
91.258843265079
 20
245536.98037768
 10
88.1167152795814
 20
245538.023281296
 10
84.3385098936947
 20
245539.550929916
 10
79.924227107419
 20
245541.56332354
 10
75.7371500527899
 20
245544.403395185
 10
71.7772787298073
 20
245548.071144853
 10
68.0446131384712
 20
245552.566572544
 10
64.5391532787817
 20
245557.889678256
 10
59.7191459717086
 20
245563.277699893
 10
53.5845912172519
 20
245568.730637452
 10
46.1354890154117
 20
245574.248490935
 10
37.3718393661879
 20
245579.831260341
 10
28.6406476786279
 20
245584.407832936
 10
19.9419139527317
 20
245587.978208719
 10
11.2756381884993
 20
245590.54238769
 10
2.64182038593063
 20
245592.10036985
 10
-4.75859487341391
 20
245593.918015703
 10
-10.9256075895344
 20
245595.99532525
 10
-15.8592177624307
 20
245598.332298489
 10
-19.559425392103
 20
245600.928935423
 10
-22.1398333443744
 20
245604.365422114
 10
-23.6004416192451
 20
245608.641758563
 10
-23.9412502167149
 20
245613.75794477
 10
-23.1622591367839
 20
245619.713980735
 10
-22.9350534051374
 20
245625.479326176
 10
-23.2596330217753
 20
245631.053981092
 10
-24.1359979866977
 20
245636.437945483
 10
-25.5641482999045
 20
245641.631219349
 10
-26.9981284423511
 20
245645.731571394
 10
-28.4379384140375
 20
245648.739001619
 10
-30.2464456225052
 20
245650.858906669
 10
-33.5122522903786
 20
245652.707476481
  0
LWPOLYLINE
  5
20001
100
AcDbEntity
  8
0
100
AcDbPolyline
 70
0
 90
66
 10
-198.154310093513
 20
245433.797701199
 10
-197.864506328348
 20
245433.293227978
 10
-196.14766304077
 20
245432.116192689
 10
-192.907178975724
 20
245430.098437592
 10
-188.110853714859
 20
245427.183910106
 10
-181.758687258174
 20
245423.372610232
 10
-174.429264423538
 20
245421.198214791
 10
-166.122585210951
 20
245420.660723783
 10
-156.838649620412
 20
245421.760137209
 10
-146.577457651922
 20
245424.496455067
 10
-135.72991185666
 20
245427.623675476
 10
-124.296012234628
 20
245431.141798437
 10
-112.275758785825
 20
245435.050823949
 10
-99.6691515102514
 20
245439.350752012
 10
-87.6000352425508
 20
245444.72566209
 10
-76.0684099827236
 20
245451.175554185
 10
-65.0742757307696
 20
245458.700428295
 10
-54.6176324866889
 20
245467.300284421
 10
-44.8206372977255
 20
245474.971746988
 10
-35.6832901638793
 20
245481.714815996
 10
-27.2055910851504
 20
245487.529491445
 10
-19.3875400615387
 20
245492.415773335
 10
-11.6916460851709
 20
245496.520250122
 10
-4.11790915604702
 20
245499.842921807
 10
3.33367072583289
 20
245502.38378839
 10
10.6630935604689
 20
245504.14284987
 10
17.1862798832949
 20
245504.875792153
 10
22.903229694311
 20
245504.58261524
 10
27.8139429935171
 20
245503.26331913
 10
31.9184197809132
 20
245500.917903823
 10
35.5342683793336
 20
245498.328174421
 10
38.6614887887783
 20
245495.494130925
 10
41.3000810092473
 20
245492.415773335
 10
43.4500450407405
 20
245489.093101649
 10
45.111380883258
 20
245486.088038287
 10
46.2840885367997
 20
245483.400583248
 10
46.9681680013657
 20
245481.030736531
 10
47.163619276956
 20
245478.978498138
 10
47.7744045131757
 20
245477.317162295
 10
48.8005237100247
 20
245476.046729004
 10
50.2419768675032
 20
245475.167198264
 10
52.0987639856109
 20
245474.678570075
 10
53.9555511037187
 20
245474.43425598
 10
55.8123382218265
 20
245474.43425598
 10
57.6691253399343
 20
245474.678570075
 10
59.525912458042
 20
245475.167198264
 10
61.6270136706377
 20
245475.900140547
 10
63.9724289777212
 20
245476.877396925
 10
66.5621583792926
 20
245478.098967397
 10
69.3962018753518
 20
245479.564851964
 10
71.8637742296793
 20
245481.568227539
 10
73.9648754422749
 20
245484.109094122
 10
75.6995055131388
 20
245487.187451712
 10
77.0676644422708
 20
245490.803300311
 10
78.3146657877728
 20
245494.614038873
 10
79.4405095496447
 20
245498.619667399
 10
80.4451957278865
 20
245502.820185889
 10
81.3287243224982
 20
245507.215594342
 10
82.2394337103861
 20
245511.202704277
 10
83.1773238915501
 20
245514.781515694
 10
84.1423948659903
 20
245517.952028593
 10
85.1346466337066
 20
245520.714242973
 10
86.5389916896865
 20
245523.474825524
 10
88.35543003393
 20
245526.233776247
 10
91.2441178966297
 20
245529.680016906
 10
97.1855239683637
 20
245535.8803128
  0
LWPOLYLINE
  5
20002
100
AcDbEntity
  8
0
100
AcDbPolyline
 70
0
 90
78
 10
-33.5122522903786
 20
245652.707476481
 10
-45.7288933361339
 20
245659.622556318
 10
-53.5441717609805
 20
245662.273971633
 10
-61.0303012468369
 20
245662.966749038
 10
-69.5446863543425
 20
245662.469230737
 10
-79.0873270834973
 20
245660.781416731
 10
-88.7273416976434
 20
245658.525588395
 10
-98.464730196781
 20
245655.70174573
 10
-108.29949258091
 20
245652.309888736
 10
-118.23162885003
 20
245648.350017413
 10
-127.198140759653
 20
245643.976307079
 10
-135.199028309777
 20
245639.188757734
 10
-142.234291500404
 20
245633.987369377
 10
-148.303930331533
 20
245628.372142009
 10
-154.024646074777
 20
245623.073379768
 10
-159.396438730134
 20
245618.091082652
 10
-164.419308297606
 20
245613.425250663
 10
-169.093254777192
 20
245609.0758838
 10
-175.276496474144
 20
245605.489279036
 10
-182.969033388463
 20
245602.665436372
 10
-192.170865520148
 20
245600.604355806
 10
-202.881992869199
 20
245599.306037339
 10
-213.138708754958
 20
245598.429672374
 10
-222.941013177423
 20
245597.975260911
 10
-232.288906136595
 20
245597.942802949
 10
-241.182387632474
 20
245598.332298489
 10
-249.361793971749
 20
245599.533243071
 10
-256.827125154421
 20
245601.545636694
 10
-263.57838118049
 20
245604.369479359
 10
-269.615562049955
 20
245608.004771065
 10
-274.760148973666
 20
245612.662488564
 10
-279.012141951623
 20
245618.342631855
 10
-282.371540983826
 20
245625.045200939
 10
-284.838346070274
 20
245632.770195815
 10
-287.215891762147
 20
245640.085408925
 10
-289.504178059444
 20
245646.990840269
 10
-291.703204962166
 20
245653.486489847
 10
-293.812972470312
 20
245659.572357659
 10
-296.158060200521
 20
245664.753459789
 10
-298.738468152793
 20
245669.029796238
 10
-301.554196327127
 20
245672.401367006
 10
-304.605244723523
 20
245674.868172093
 10
-307.948414774894
 20
245676.76696285
 10
-311.583706481238
 20
245678.097739278
 10
-315.511119842557
 20
245678.860501377
 10
-319.73065485885
 20
245679.055249147
 10
-325.248508341695
 20
245678.681982588
 10
-332.064680291091
 20
245677.7407017
 10
-340.179170707039
 20
245676.231406482
 10
-349.591979589538
 20
245674.154096936
 10
-358.566605989577
 20
245671.70352083
 10
-367.103049907154
 20
245668.879678166
 10
-375.20131134227
 20
245665.682568942
 10
-382.861390294925
 20
245662.112193159
 10
-393.442774915472
 20
245656.68544125
 10
-406.94546520391
 20
245649.402313215
 10
-423.36946116024
 20
245640.262809054
 10
-442.714762784461
 20
245629.266928766
 10
-458.552662786937
 20
245620.171289518
 10
-470.883161167668
 20
245612.975891307
 10
-479.706257926654
 20
245607.680734135
 10
-485.021953063894
 20
245604.285818001
 10
-490.452017246798
 20
245600.853398462
 10
-495.996450475366
 20
245597.383475516
 10
-501.655252749598
 20
245593.876049164
 10
-507.428424069494
 20
245590.331119406
 10
-513.480125584647
 20
245586.925454746
 10
-519.810357295059
 20
245583.659055183
 10
-526.419119200729
 20
245580.531920718
 10
-533.306411301657
 20
245577.544051351
 10
-539.908842975616
 20
245574.628979649
 10
-546.226414222607
 20
245571.786705611
 10
-552.25912504263
 20
245569.017229237
 10
-558.006975435684
 20
245566.320550529
 10
-562.547673653806
 20
245564.136508803
 10
-565.881219696996
 20
245562.465104062
 10
-568.237423988586
 20
245561.144803609
 10
-570.30571779857
 20
245559.691009365
  0
LWPOLYLINE
  5
20003
100
AcDbEntity
  8
0
100
AcDbPolyline
 70
0
 90
30
 10
-570.30571779857
 20
245559.691009365
 10
-570.4793556777
 20
245559.568960096
 10
-572.358419621585
 20
245558.056609918
 10
-576.000788923269
 20
245555.113275743
 10
-581.425756680432
 20
245550.725396541
 10
-588.633322893075
 20
245544.89297231
 10
-595.108806711617
 20
245539.208296174
 10
-600.852208136057
 20
245533.67136813
 10
-605.863527166397
 20
245528.282188181
 10
-610.142763802635
 20
245523.040756325
 10
-613.744665645859
 20
245518.438677871
 10
-616.669232696069
 20
245514.47595282
 10
-618.916464953266
 20
245511.152581172
 10
-620.486362417448
 20
245508.468562927
 10
-621.663785515584
 20
245505.607298194
 10
-622.448734247675
 20
245502.568786973
 10
-622.841208613721
 20
245499.353029264
 10
-622.841208613721
 20
245495.960025067
 10
-622.537357491621
 20
245493.022797554
 10
-621.929655247422
 20
245490.541346723
 10
-621.018101881122
 20
245488.515672576
 10
-619.802697392723
 20
245486.945775112
 10
-618.416376648143
 20
245485.078356757
 10
-616.859139647382
 20
245482.913417512
 10
-615.130986390439
 20
245480.450957377
 10
-613.231916877316
 20
245477.690976351
 10
-611.463162540217
 20
245475.531338639
 10
-609.824723379144
 20
245473.97204424
 10
-607.97214719184
 20
245472.923441211
 10
-604.872077371537
 20
245472.116573724
  0
LWPOLYLINE
  5
20004
100
AcDbEntity
  8
0
100
AcDbPolyline
 70
0
 90
46
 10
-604.872077371537
 20
245472.116573724
 10
-599.654222724359
 20
245470.758501966
 10
-596.119771726102
 20
245470.395463323
 10
-592.529439494376
 20
245470.57476721
 10
-588.303464401714
 20
245471.145516763
 10
-583.441846448118
 20
245472.107711983
 10
-578.529586640839
 20
245473.348437398
 10
-573.566684979876
 20
245474.867693008
 10
-568.55314146523
 20
245476.665478814
 10
-563.4889560969
 20
245478.741794815
 10
-558.627338143304
 20
245481.153613097
 10
-553.968287604441
 20
245483.900933659
 10
-549.511804480311
 20
245486.983756502
 10
-545.257888770914
 20
245490.402081626
 10
-541.472410208088
 20
245494.371136908
 10
-538.155368791832
 20
245498.890922349
 10
-535.306764522147
 20
245503.961437949
 10
-532.926597399032
 20
245509.582683708
 10
-530.635053519863
 20
245514.596227223
 10
-528.43213288464
 20
245519.002068493
 10
-526.317835493362
 20
245522.80020752
 10
-524.29216134603
 20
245525.990644302
 10
-521.734747735024
 20
245529.117778767
 10
-518.645594660343
 20
245532.181610914
 10
-515.024702121987
 20
245535.182140745
 10
-510.872070119957
 20
245538.119368259
 10
-506.542191630036
 20
245540.550177236
 10
-502.035066652222
 20
245542.474567676
 10
-497.350695186518
 20
245543.892539579
 10
-492.489077232921
 20
245544.804092945
 10
-487.804705767217
 20
245545.462437043
 10
-483.297580789404
 20
245545.867571872
 10
-478.967702299482
 20
245546.019497433
 10
-474.815070297452
 20
245545.918213726
 10
-470.865005710155
 20
245545.589041677
 10
-467.117508537591
 20
245545.031981287
 10
-463.57257877976
 20
245544.247032554
 10
-460.230216436663
 20
245543.234195481
 10
-457.520877264607
 20
245542.145395627
 10
-455.444561263592
 20
245540.980632992
 10
-454.001268433618
 20
245539.739907577
 10
-453.190998774685
 20
245538.423219381
 10
-452.646598385762
 20
245537.264788225
 10
-452.368067266849
 20
245536.264614108
 10
-452.418707273222
 20
245535.251782022
 10
-452.988423970711
 20
245533.713546939
  0
LWPOLYLINE
  5
20005
100
AcDbEntity
  8
0
100
AcDbPolyline
 70
0
 90
22
 10
-452.988423970711
 20
245533.713546939
 10
-454.69759068897
 20
245529.0987968
 10
-456.115564439413
 20
245526.31348986
 10
-457.812067461458
 20
245523.819376072
 10
-459.977007168247
 20
245521.103705421
 10
-462.610383559778
 20
245518.166477908
 10
-464.990550682893
 20
245515.115306223
 10
-467.117508537591
 20
245511.950190368
 10
-468.991257123873
 20
245508.671130342
 10
-470.611796441738
 20
245505.278126145
 10
-472.232335759604
 20
245501.429345265
 10
-473.852875077469
 20
245497.124787702
 10
-475.473414395335
 20
245492.364453456
 10
-477.0939537132
 20
245487.148342527
 10
-478.891739518957
 20
245481.660031634
 10
-480.866771812605
 20
245475.899520777
 10
-483.019050594145
 20
245469.866809957
 10
-485.348575863577
 20
245463.561899174
 10
-487.086705897908
 20
245458.238297515
 10
-488.233440697137
 20
245453.896004981
 10
-488.779766343522
 20
245449.940103001
 10
-488.698641083833
 20
245444.585835861
  0
LWPOLYLINE
  5
20006
100
AcDbEntity
  8
0
100
AcDbPolyline
 70
0
 90
10
 10
282.46190788948
 20
245439.872529647
 10
280.124934649687
 20
245444.400415299
 10
279.540691339739
 20
245449.577460184
 10
279.930186879704
 20
245456.91295952
 10
281.033757576273
 20
245466.910011713
 10
282.851403429446
 20
245479.568616762
 10
284.449845644379
 20
245489.574147568
 10
285.829084221074
 20
245496.926604131
 10
287.224326984585
 20
245502.137563471
 10
289.341197410073
 20
245506.741756647
  0
LWPOLYLINE
  5
20007
100
AcDbEntity
  8
0
100
AcDbPolyline
 70
0
 90
14
 10
289.341197410073
 20
245506.741756647
 10
293.066760084067
 20
245514.844855463
 10
294.852397563608
 20
245518.803270293
 10
295.939964073362
 20
245521.318034075
 10
296.743411021549
 20
245523.289491123
 10
297.262738408169
 20
245524.717641436
 10
296.564892232398
 20
245525.496632516
 10
294.649872494234
 20
245525.626464363
 10
291.517679193678
 20
245525.107136976
 10
287.16831233073
 20
245523.938650356
 10
282.838141675039
 20
245522.831663065
 10
278.527167226606
 20
245521.786175104
 10
273.16724347695
 20
245520.571564146
 10
263.553933900633
 20
245518.495963215
  0
LWPOLYLINE
  5
20008
100
AcDbEntity
  8
0
100
AcDbPolyline
 70
0
 90
86
 10
-488.698641083833
 20
245444.585835861
 10
-488.665822172735
 20
245442.419787729
 10
-488.663896453445
 20
245440.798755572
 10
-488.681924288931
 20
245439.000723347
 10
-488.716259133516
 20
245436.785019038
 10
-488.766900987199
 20
245434.151642647
 10
-488.728919596937
 20
245431.796796451
 10
-488.602314962729
 20
245429.72048045
 10
-488.387087084575
 20
245427.922694644
 10
-488.083235962475
 20
245426.403439033
 10
-487.199533134318
 20
245424.908554195
 10
-485.735978600102
 20
245423.438040128
 10
-483.69257235983
 20
245421.991896832
 10
-481.0693144135
 20
245420.570124309
 10
-477.807006252966
 20
245420.139011562
 10
-473.90564787823
 20
245420.698558591
 10
-469.36523928929
 20
245422.248765398
 10
-464.185780486147
 20
245424.78963198
 10
-457.149534564897
 20
245429.2361485
 10
-448.256501525539
 20
245435.588314957
 10
-437.506681368072
 20
245443.84613135
 10
-424.900074092499
 20
245454.009597681
 10
-413.148566147632
 20
245463.757730051
 10
-402.252157533473
 20
245473.09052846
 10
-392.210848250022
 20
245482.007992909
 10
-383.024638297278
 20
245490.510123397
 10
-373.985016801227
 20
245498.37703724
 10
-365.091983761869
 20
245505.608734437
 10
-356.345539179203
 20
245512.205214988
 10
-347.74568305323
 20
245518.166478893
 10
-340.51398585639
 20
245522.784015279
 10
-334.650447588681
 20
245526.057824145
 10
-330.155068250104
 20
245527.987905492
 10
-327.027847840659
 20
245528.574259319
 10
-323.314273604444
 20
245529.062887508
 10
-319.014345541457
 20
245529.453790059
 10
-314.1280636517
 20
245529.746966972
 10
-308.655427935172
 20
245529.942418248
 10
-303.695851817068
 20
245530.137869523
 10
-299.249335297389
 20
245530.333320799
 10
-295.315878376134
 20
245530.528772075
 10
-291.895481053304
 20
245530.72422335
 10
-288.475083730474
 20
245531.090694492
 10
-285.054686407644
 20
245531.6281855
 10
-281.634289084814
 20
245532.336696374
 10
-278.213891761984
 20
245533.216227114
 10
-275.282122628129
 20
245533.704855303
 10
-272.838981683251
 20
245533.802580941
 10
-270.884468927348
 20
245533.509404027
 10
-269.418584360421
 20
245532.825324563
 10
-267.854974155698
 20
245531.823636775
 10
-266.193638313181
 20
245530.504340665
 10
-264.434576832868
 20
245528.867436232
 10
-262.57778971476
 20
245526.912923476
 10
-260.354531454921
 20
245525.471470319
 10
-257.764802053349
 20
245524.54307676
 10
-254.808601510046
 20
245524.127742799
 10
-251.485929825011
 20
245524.225468437
 10
-248.187689549425
 20
245523.590251791
 10
-244.913880683288
 20
245522.222092862
 10
-241.664503226599
 20
245520.120991649
 10
-238.439557179359
 20
245517.286948153
 10
-235.947553415583
 20
245514.33074761
 10
-234.18849193527
 20
245511.252390019
 10
-233.162372738421
 20
245508.051875382
 10
-232.869195825036
 20
245504.729203697
 10
-232.652319925968
 20
245501.937069052
 10
-232.511745041218
 20
245499.675471447
 10
-232.447471170786
 20
245497.944410882
 10
-232.459498314672
 20
245496.743887358
 10
-232.245629201576
 20
245495.679428816
 10
-231.805863831498
 20
245494.751035257
 10
-231.140202204437
 20
245493.958706681
 10
-230.248644320395
 20
245493.302443087
 10
-229.242997689415
 20
245492.654386897
 10
-228.123262311496
 20
245492.014538109
 10
-226.889438186639
 20
245491.382896725
 10
-225.541525314843
 20
245490.759462744
 10
-224.012469548238
 20
245490.227863068
 10
-222.302270886823
 20
245489.788097698
 10
-220.410929330598
 20
245489.440166633
 10
-218.338444879564
 20
245489.184069874
 10
-216.760433463534
 20
245488.970714035
 10
-215.676895082511
 20
245488.800099116
 10
-215.064181658739
 20
245488.650941846
 10
-214.85134895896
 20
245488.459392416
  0
LWPOLYLINE
  5
20009
100
AcDbEntity
  8
0
100
AcDbPolyline
 70
0
 90
18
 10
-214.85134895896
 20
245488.459392416
 10
-212.865354808348
 20
245486.671997681
 10
-211.884965103615
 20
245485.46226606
 10
-211.248181794555
 20
245484.234399309
 10
-210.734338864435
 20
245482.789798012
 10
-210.343436313255
 20
245481.128462169
 10
-209.952533762074
 20
245478.905203909
 10
-209.561631210893
 20
245476.120023232
 10
-209.170728659713
 20
245472.772920138
 10
-208.779826108532
 20
245468.863894626
 10
-208.486649195147
 20
245465.199183209
 10
-208.291197919557
 20
245461.778785886
 10
-208.193472281761
 20
245458.602702657
 10
-208.193472281761
 20
245455.670933524
 10
-207.566024644996
 20
245452.379883009
 10
-206.311129371465
 20
245448.729551114
 10
-203.801338824403
 20
245443.627714175
 10
-198.154310093513
 20
245433.797701199
  0
ENDSEC
  0
SECTION
  2
OBJECTS
  0
DICTIONARY
  5
C
330
0
100
AcDbDictionary
281
     1
  3
ACAD_GROUP
350
D
  3
ACAD_LAYOUT
350
1A
  3
ACAD_MLEADERSTYLE
350
43
  3
ACAD_PLOTSETTINGS
350
19
  3
ACAD_PLOTSTYLENAME
350
E
  3
ACAD_TABLESTYLE
350
42
  0
DICTIONARY
  5
D
102
{ACAD_REACTORS
330
C
102
}
330
C
100
AcDbDictionary
281
     1
  0
DICTIONARY
  5
1A
102
{ACAD_REACTORS
330
C
102
}
330
C
100
AcDbDictionary
281
     1
  3
Layout1
350
1E
  3
Model
350
22
  0
DICTIONARY
  5
43
102
{ACAD_REACTORS
330
C
102
}
330
C
100
AcDbDictionary
281
     1
  0
DICTIONARY
  5
19
102
{ACAD_REACTORS
330
C
102
}
330
C
100
AcDbDictionary
281
     1
  0
ACDBDICTIONARYWDFLT
  5
E
102
{ACAD_REACTORS
330
C
102
}
330
C
100
AcDbDictionary
281
     1
  3
Normal
350
F
100
AcDbDictionaryWithDefault
340
F
  0
DICTIONARY
  5
42
102
{ACAD_REACTORS
330
C
102
}
330
C
100
AcDbDictionary
281
     1
  0
LAYOUT
  5
1E
102
{ACAD_REACTORS
330
1A
102
}
330
1A
100
AcDbPlotSettings
  1

  2
none_device
  4

  6

 40
0.0
 41
0.0
 42
0.0
 43
0.0
 44
0.0
 45
0.0
 46
0.0
 47
0.0
 48
0.0
 49
0.0
140
0.0
141
0.0
142
1.0
143
1.0
 70
   688
 72
     0
 73
     0
 74
     5
  7

 75
    16
 76
     0
 77
     2
 78
   300
147
1.0
148
0.0
149
0.0
100
AcDbLayout
  1
Layout1
 70
     1
 71
     1
 10
0.0
 20
0.0
 11
12.0
 21
9.0
 12
0.0
 22
0.0
 32
0.0
 14
1.000000000000000E+20
 24
1.000000000000000E+20
 34
1.000000000000000E+20
 15
-1.000000000000000E+20
 25
-1.000000000000000E+20
 35
-1.000000000000000E+20
146
0.0
 13
0.0
 23
0.0
 33
0.0
 16
1.0
 26
0.0
 36
0.0
 17
0.0
 27
1.0
 37
0.0
 76
     0
330
1B
  0
LAYOUT
  5
22
102
{ACAD_REACTORS
330
1A
102
}
330
1A
100
AcDbPlotSettings
  1

  2
none_device
  4

  6

 40
0.0
 41
0.0
 42
0.0
 43
0.0
 44
0.0
 45
0.0
 46
0.0
 47
0.0
 48
0.0
 49
0.0
140
0.0
141
0.0
142
1.0
143
1.0
 70
  1712
 72
     0
 73
     0
 74
     0
  7

 75
     0
 76
     0
 77
     2
 78
   300
147
1.0
148
0.0
149
0.0
100
AcDbLayout
  1
Model
 70
     1
 71
     0
 10
0.0
 20
0.0
 11
12.0
 21
9.0
 12
0.0
 22
0.0
 32
0.0
 14
30.0
 24
49.75
 34
0.0
 15
130.5
 25
163.1318914119703
 35
0.0
146
0.0
 13
0.0
 23
0.0
 33
0.0
 16
1.0
 26
0.0
 36
0.0
 17
0.0
 27
1.0
 37
0.0
 76
     0
330
1F
331
29
  0
ACDBPLACEHOLDER
  5
F
102
{ACAD_REACTORS
330
E
102
}
330
E
  0
ENDSEC
  0
EOF
